<svg xmlns="http://www.w3.org/2000/svg" width="1200" height="750" viewBox="0 0 1200 750" fill="none">
  <rect width="1200" height="750" rx="44" fill="#eaf4ff"/>
  <rect x="64" y="64" width="1072" height="622" rx="34" fill="#fafdff"/>
  <rect x="108" y="108" width="984" height="120" rx="28" fill="#1973db"/>
  <rect x="108" y="268" width="224" height="278" rx="28" fill="#dcecff"/>
  <rect x="364" y="268" width="224" height="278" rx="28" fill="#eef5ff"/>
  <rect x="620" y="268" width="224" height="278" rx="28" fill="#dcecff"/>
  <rect x="876" y="268" width="216" height="278" rx="28" fill="#eef5ff"/>
  <path d="M158 328h122" stroke="#1973db" stroke-width="24" stroke-linecap="round"/>
  <path d="M414 328h122" stroke="#1973db" stroke-width="24" stroke-linecap="round"/>
  <path d="M670 328h122" stroke="#1973db" stroke-width="24" stroke-linecap="round"/>
  <path d="M924 328h108" stroke="#1973db" stroke-width="24" stroke-linecap="round"/>
  <circle cx="220" cy="420" r="54" fill="#1973db"/>
  <circle cx="476" cy="420" r="54" fill="#66a4ef"/>
  <circle cx="732" cy="420" r="54" fill="#1973db"/>
  <circle cx="978" cy="420" r="54" fill="#66a4ef"/>
  <rect x="108" y="588" width="984" height="42" rx="18" fill="#dcecff"/>
  <text x="108" y="666" fill="#1973db" font-family="Arial, sans-serif" font-size="66" font-weight="700">Litmarket Tags Booster</text>
</svg>
