<svg width="104" height="34" viewBox="0 0 104 34" fill="none" xmlns="http://www.w3.org/2000/svg">
<path d="M8.43254 8.13699H4.71557L4.27175 20.6027C4.21627 22.2283 3.9019 23.4338 3.32863 24.2192C2.75537 24.9863 1.76602 25.379 0.360602 25.3973H0V23.4521C0.850652 23.4521 1.41467 23.2511 1.69205 22.8493C1.96944 22.4292 2.12662 21.7169 2.16361 20.7123L2.69064 6.19178H10.5962V25.3699H8.43254V8.13699ZM20.1198 10.1096L18.0394 16.4658L15.1546 25.3699H12.9078V6.19178H14.8218V20.4931L16.8189 14.4384L19.6483 6.19178H22.0615V25.3699H20.1198V10.1096ZM29.3895 25.3699H27.2259V8.13699H23.6476V6.19178H32.9678V8.13699H29.3895V25.3699ZM42.3454 8.13699H36.7422V25.3699H34.6063V6.19178H42.3454V8.13699ZM44.2995 20.7397V10.8219C44.2995 9.3242 44.6693 8.14612 45.409 7.28767C46.1672 6.42922 47.2768 6 48.7377 6C50.1986 6 51.3081 6.42922 52.0663 7.28767C52.8245 8.14612 53.2036 9.3242 53.2036 10.8219V20.7397C53.2036 22.2374 52.8245 23.4155 52.0663 24.274C51.3081 25.1324 50.1986 25.5616 48.7377 25.5616C47.2953 25.5616 46.195 25.1324 45.4368 24.274C44.6786 23.4155 44.2995 22.2374 44.2995 20.7397ZM46.4354 10.7123V20.8493C46.4354 22.6941 47.2028 23.6164 48.7377 23.6164C50.2726 23.6164 51.04 22.6941 51.04 20.8493V10.7123C51.04 8.86758 50.2726 7.94521 48.7377 7.94521C47.2028 7.94521 46.4354 8.86758 46.4354 10.7123ZM55.2471 6.19178H59.4911C62.3945 6.19178 63.8461 7.75342 63.8461 10.8767V13.1781C63.8461 16.2648 62.339 17.8082 59.3247 17.8082H57.4107V25.3699H55.2471V6.19178ZM57.4107 15.8904H59.3247C60.1384 15.8904 60.7394 15.6895 61.1277 15.2877C61.5161 14.8858 61.7102 14.2283 61.7102 13.3151V10.7671C61.7102 9.87215 61.5346 9.21461 61.1832 8.79452C60.8318 8.35616 60.2678 8.13699 59.4911 8.13699H57.4107V15.8904ZM65.3744 20.7397V10.8219C65.3744 9.3242 65.7442 8.14612 66.4839 7.28767C67.2421 6.42922 68.3517 6 69.8126 6C71.2735 6 72.383 6.42922 73.1412 7.28767C73.8994 8.14612 74.2785 9.3242 74.2785 10.8219V20.7397C74.2785 22.2374 73.8994 23.4155 73.1412 24.274C72.383 25.1324 71.2735 25.5616 69.8126 25.5616C68.3702 25.5616 67.2699 25.1324 66.5117 24.274C65.7535 23.4155 65.3744 22.2374 65.3744 20.7397ZM67.5103 10.7123V20.8493C67.5103 22.6941 68.2777 23.6164 69.8126 23.6164C71.3475 23.6164 72.1149 22.6941 72.1149 20.8493V10.7123C72.1149 8.86758 71.3475 7.94521 69.8126 7.94521C68.2777 7.94521 67.5103 8.86758 67.5103 10.7123ZM88 28H85.8919V25.3699H77.9586V28H75.8782V23.4795H77.1264C77.6442 22.9132 77.9309 21.9817 77.9864 20.6849L78.7353 6.19178H86.5299V23.4795H88V28ZM80.7325 8.13699L80.0945 20.6575C80.0205 22.0091 79.7246 22.9498 79.2069 23.4795H84.3385V8.13699H80.7325Z" fill="#017C6E"/>
</svg>
