<svg xmlns="http://www.w3.org/2000/svg" viewBox="0 0 495.8 131.7" fill="#6f1346">
  <g>
    <path d="m233.7 96h-5.9l-19.1-52.4-19.3 52.4h-5.8l22.5-60.4h5.2l22.4 60.4"/>
    <path d="m283.6 95.8v-50.9l-33.2 50.9h-4.7v-60h5.4v49.8l32.4-49.8h5.4v60h-5.3"/>
    <path d="m318.2 41h-17v-5.2h39.8v5.2h-17.3v54.8h-5.5v-54.8"/>
    <path d="m352.6 35.8h5.5v27.3h30.4v-27.3h5.4v60h-5.4v-27.6h-30.4v27.6h-5.5v-60"/>
    <path d="m410.2 35.8h36.3v5.1h-30.8v22.1h27.6v5.2h-27.6v22.6h31.1v5h-36.6v-60"/>
    <path d="m473.1 41h-17v-5.2h39.7v5.2h-17.1v54.8h-5.6v-54.8"/>
    <path d="m131.7 131.7h-37l-45.2-127.6-45.3 127.6h-4.2l47.4-131.7h37.1l47.2 131.7"/>
  </g>
</svg>
